<?xml version="1.0" encoding="utf-8"?>
<!-- Generator: Adobe Illustrator 19.2.1, SVG Export Plug-In . SVG Version: 6.00 Build 0)  -->
<svg version="1.1" id="Layer_1" xmlns="http://www.w3.org/2000/svg" xmlns:xlink="http://www.w3.org/1999/xlink" x="0px" y="0px"
	 viewBox="0 0 16 13" style="enable-background:new 0 0 16 13;" xml:space="preserve">
<style type="text/css">
	.st0{fill:#CCCCCC;}
</style>
<path class="st0" d="M14.4,3.2c0,0.1,0,0.3,0,0.4C14.4,8,11.1,13,5,13c-1.9,0-3.6-0.5-5-1.5c0.3,0,0.5,0,0.8,0c1.5,0,3-0.5,4.1-1.4
	c-1.4,0-2.6-1-3.1-2.3c0.2,0,0.4,0.1,0.6,0.1c0.3,0,0.6,0,0.9-0.1C1.8,7.5,0.6,6.2,0.6,4.6c0,0,0,0,0,0C1.1,4.8,1.6,5,2.1,5
	C1.2,4.4,0.7,3.4,0.7,2.3c0-0.6,0.2-1.2,0.4-1.7c1.6,2,4,3.3,6.8,3.4C7.8,3.8,7.8,3.5,7.8,3.3C7.8,1.5,9.3,0,11.1,0
	c0.9,0,1.8,0.4,2.4,1c0.7-0.1,1.5-0.4,2.1-0.8c-0.2,0.8-0.8,1.4-1.4,1.8C14.8,2,15.4,1.8,16,1.5C15.6,2.2,15,2.8,14.4,3.2z"/>
<g>
</g>
<g>
</g>
<g>
</g>
<g>
</g>
<g>
</g>
<g>
</g>
<g>
</g>
<g>
</g>
<g>
</g>
<g>
</g>
<g>
</g>
<g>
</g>
<g>
</g>
<g>
</g>
<g>
</g>
</svg>
