<?xml version="1.0" encoding="UTF-8" standalone="no"?>
<svg width="1000px" height="1000px" viewBox="0 0 1000 1000" version="1.1" xmlns="http://www.w3.org/2000/svg" xmlns:xlink="http://www.w3.org/1999/xlink">
    <!-- Generator: Sketch 40.1 (33804) - http://www.bohemiancoding.com/sketch -->
    <title>openmunich</title>
    <desc>Created with Sketch.</desc>
    <defs></defs>
    <g id="Page-1" stroke="none" stroke-width="1" fill="none" fill-rule="evenodd">
        <g id="openmunich">
            <g id="Ebene_1">
                <rect id="Rectangle-path" fill="#0098D4" x="0" y="0" width="1000" height="1000"></rect>
                <path d="M953.54,524.87 C953.54,524.87 971.62,543.14 983.54,535.28 C989.66,531.28 1000,534.74 1000,534.74 L1000,1000 L0,1000 L0,518.71 L0,509.07 C0,509.07 43.88,515.96 62.42,513.48 C94.56,509.22 116.28,489.48 144.81,476.41 C170.7,464.58 198.3,468.47 223.43,459.52 C244.09,452.18 252.31,438.68 268.23,426.47 C271.083031,424.28361 274.963407,424.004474 278.1,425.76 C303.65,439.88 323.7,452.18 345.99,461.9 C364.302946,469.98488 383.530561,475.814279 403.25,479.26 C451.25,488.01 482.89,517.61 529.44,535.44 C549.77,543.22 573.31,543.25 595.44,544.69 C603.802049,545.127725 612.128402,546.089614 620.37,547.57 C645.37,552.43 670.49,567.45 698.99,559.23 C727.82,550.92 740.61,526.45 758.27,505.23 C761.651376,501.077526 765.295518,497.146128 769.18,493.46 C785.31,478.24 805.94,470.37 822.64,456.05" id="Shape" fill="#383838"></path>
                <g id="Group" opacity="0.5" transform="translate(0.000000, 265.000000)" fill="#00C3FF">
                    <g id="Shape">
                        <path d="M964.72,52.38 C925.72,29.11 927.11,-26.79 882.34,16.38 C870.34,27.95 827.34,71.88 816.43,88.82 L779,124.08 C759.28,145.55 738.18,160.18 715.61,176.75 C705.17,184.42 696.82,193.65 687.61,200.88 C681.51,205.68 675.05,209.58 667.36,211.58 L663.75,211.68 C657.77113,211.219865 651.819918,210.452182 645.92,209.38 C607.75,202.18 595.45,182.75 563.68,151.24 C532.33,120.24 458.61,65.7 431.27,98.94 L421.1,108.94 L418.88,111.04 C418.56,111.35 418.25,111.64 417.95,111.94 L416.69,113.17 C414.37,115.47 412.02,117.87 409.69,120.34 L407.64,122.47 C407.31,122.84 406.98,123.17 406.64,123.54 L406.57,123.64 C406.34,123.87 406.11,124.14 405.91,124.37 L405.45,124.9 C403.36,127.17 401.27,129.5 399.19,131.9 L395.94,135.7 C379.17,155.33 362.44,178.04 346.77,199.84 C336.37,214.31 326.46,228.37 317.28,240.98 C310.75,249.91 305.28,258.48 299.92,266.58 L299.26,267.58 C297.14,270.75 294.99,273.81 292.8,276.85 L292.37,277.42 C284.25,288.42 275.11,298.42 261.65,307.02 C238.29,322.02 205.75,323.19 185.65,336.09 C161.53,351.52 160.23,373.29 126.1,378.66 C125.34,378.79 124.61,378.83 123.85,378.93 L122.66,379.1 C115.542089,379.868191 108.360424,379.834647 101.25,379 L99.99,378.83 C79.61,376.3 60.23,368.66 38.22,366.3 C25.5106601,364.770371 12.6520217,364.982327 -7.81041898e-15,366.93 L-7.81041898e-15,735 L1000,735 L1000,69.45 C989,63.92 977.47,59.98 964.71,52.38"></path>
                    </g>
                </g>
                <path d="M505.48,1000 L505.48,981.26 L511.21,967.09 L511.21,926.74 L515.12,922.42 L515.12,819.13 L529.12,797.03 L529.12,657.47 L535.42,643.54 L535.42,624.54 L529.6,613.09 L529.6,549.38 L520.54,549.38 L520.54,533.29 L535,533.29 C532.77,529.45 510.46,484.95 528.14,446.65 C545.82,408.35 575.87,388.31 622.14,388.31 L624.34,376.78 L624.34,363.68 C620.0605,362.399467 617.36784,358.173834 618.014932,353.753974 C618.662025,349.334115 622.453023,346.057727 626.92,346.057727 C631.386977,346.057727 635.177975,349.334115 635.825068,353.753974 C636.47216,358.173834 633.7795,362.399467 629.5,363.68 L629.5,376.78 L631.7,388.31 C678.02,388.31 708.07,408.31 725.7,446.65 C743.33,484.99 721.07,529.45 718.84,533.29 L733.29,533.29 L733.29,549.38 L724.29,549.38 L724.29,613.12 L718.47,624.57 L718.47,643.57 L724.77,657.5 L724.77,797 L738.77,819.1 L738.77,922.41 L742.68,926.73 L742.68,967.09 L748.41,981.26 L748.41,1000 L505.48,1000 L505.48,1000 Z" id="Shape" fill="#FFFFFF"></path>
                <path d="M725.78,1000 L725.78,982.53 L731.12,969.32 L731.12,931.71 L734.77,927.71 L734.77,831.4 L747.84,810.8 L747.84,680.71 L753.72,667.71 L753.72,650 L748.3,639.33 L748.3,580 L739.86,580 L739.86,565 L753.34,565 C751.26,561.42 730.47,519.94 746.95,484.24 C763.43,448.54 791.44,429.86 834.62,429.86 L836.67,419.11 L836.67,406.86 C832.68051,405.666317 830.170284,401.72709 830.773488,397.606767 C831.376691,393.486445 834.910758,390.432085 839.075,390.432085 C843.239242,390.432085 846.773309,393.486445 847.376512,397.606767 C847.979716,401.72709 845.46949,405.666317 841.48,406.86 L841.48,419.07 L843.53,429.82 C886.7,429.82 914.72,448.49 931.2,484.2 C947.68,519.91 926.88,561.38 924.81,564.96 L938.28,564.96 L938.28,579.96 L929.85,579.96 L929.85,639.37 L924.4,650 L924.4,667.69 L930.28,680.69 L930.28,810.8 L943.35,831.4 L943.35,927.68 L947,931.68 L947,969.29 L952.34,982.5 L952.34,1000 L725.78,1000 L725.78,1000 Z" id="Shape" fill="#FFFFFF"></path>
            </g>
        </g>
    </g>
</svg>