<?xml version="1.0" encoding="utf-8"?>
<!-- Generator: Adobe Illustrator 19.2.1, SVG Export Plug-In . SVG Version: 6.00 Build 0)  -->
<svg version="1.1" id="Layer_1" xmlns="http://www.w3.org/2000/svg" xmlns:xlink="http://www.w3.org/1999/xlink" x="0px" y="0px"
	 viewBox="0 0 16 15.3" style="enable-background:new 0 0 16 15.3;" xml:space="preserve">
<style type="text/css">
	.st0{fill:#CCCCCC;}
</style>
<path class="st0" d="M3.6,15.3H0.2V5h3.4V15.3z M1.9,3.6L1.9,3.6C0.7,3.6,0,2.8,0,1.8C0,0.8,0.8,0,1.9,0c1.2,0,1.9,0.8,1.9,1.8
	C3.9,2.8,3.1,3.6,1.9,3.6z M16,15.3h-3.4V9.8c0-1.4-0.5-2.3-1.7-2.3c-0.9,0-1.5,0.6-1.8,1.3C9,8.9,9,9.2,9,9.5v5.8H5.5
	c0,0,0-9.3,0-10.3H9v1.5c0.5-0.7,1.3-1.7,3.1-1.7c2.3,0,3.9,1.5,3.9,4.6V15.3z"/>
<g>
</g>
<g>
</g>
<g>
</g>
<g>
</g>
<g>
</g>
<g>
</g>
<g>
</g>
<g>
</g>
<g>
</g>
<g>
</g>
<g>
</g>
<g>
</g>
<g>
</g>
<g>
</g>
<g>
</g>
</svg>
