<?xml version="1.0" encoding="utf-8"?>
<!-- Generator: Adobe Illustrator 19.2.1, SVG Export Plug-In . SVG Version: 6.00 Build 0)  -->
<svg version="1.1" id="Layer_1" xmlns="http://www.w3.org/2000/svg" xmlns:xlink="http://www.w3.org/1999/xlink" x="0px" y="0px"
	 viewBox="0 0 32 32" style="enable-background:new 0 0 32 32;" xml:space="preserve">
<style type="text/css">
	.st0{fill-rule:evenodd;clip-rule:evenodd;}
</style>
<path class="st0" d="M16,0c8.8,0,16,7.2,16,16c0,8.8-7.2,16-16,16C7.2,32,0,24.8,0,16C0,7.2,7.2,0,16,0z M16,30c7.7,0,14-6.3,14-14
	c0-7.7-6.3-14-14-14C8.3,2,2,8.3,2,16C2,23.7,8.3,30,16,30z M8.8,15h11.8l-4.1-4.1c-0.4-0.4-0.4-1,0-1.4c0.4-0.4,1-0.4,1.4,0
	l5.6,5.6c0.3,0.1,0.5,0.5,0.5,0.9c0,0.2,0,0.3-0.1,0.5c0,0,0,0,0,0c-0.1,0.1-0.1,0.2-0.2,0.3c0,0,0,0,0,0l-5.9,5.9
	c-0.4,0.4-1.1,0.4-1.5,0c-0.4-0.4-0.4-1.1,0-1.5l4.2-4.2H8.8C8.3,17,8,16.6,8,16C8,15.4,8.3,15,8.8,15z"/>
<g>
</g>
<g>
</g>
<g>
</g>
<g>
</g>
<g>
</g>
<g>
</g>
<g>
</g>
<g>
</g>
<g>
</g>
<g>
</g>
<g>
</g>
<g>
</g>
<g>
</g>
<g>
</g>
<g>
</g>
</svg>
